<svg width="32" height="32" viewBox="0 0 32 32" fill="none" xmlns="http://www.w3.org/2000/svg">
  <rect width="32" height="32" rx="8" fill="#2C7BE5"/>
  <path d="M8 13H24V10H8V13ZM8 17H24V14H8V17ZM8 21H16V18H8V21Z" fill="white"/>
  <path d="M24.7071 21.2929C25.0976 21.6834 25.0976 22.3166 24.7071 22.7071L22.3431 25.0711C21.9526 25.4616 21.3195 25.4616 20.9289 25.0711C20.5384 24.6805 20.5384 24.0474 20.9289 23.6569L23.2929 21.2929C23.6834 20.9024 24.3166 20.9024 24.7071 21.2929Z" fill="white"/>
  <path d="M18 19C18 16.7909 19.7909 15 22 15C24.2091 15 26 16.7909 26 19C26 21.2091 24.2091 23 22 23C19.7909 23 18 21.2091 18 19ZM22 21C23.1046 21 24 20.1046 24 19C24 17.8954 23.1046 17 22 17C20.8954 17 20 17.8954 20 19C20 20.1046 20.8954 21 22 21Z" fill="white"/>
</svg>
